<svg id="Layer_1" data-name="Layer 1" xmlns="http://www.w3.org/2000/svg" viewBox="0 0 1259.14 4716.58"><defs><style>.cls-1{fill:#464443;}.cls-2{fill:#68bfc1;}</style></defs><title>JUNe-logo</title><rect class="cls-1" x="970.02" y="4710.87" width="90.88" height="5.71"/><path class="cls-1" d="M1238.54,5082.68v10.64h-8.29v-10.64Z" transform="translate(-150.56 -377)"/><path class="cls-1" d="M1243.55,5093.32v-6.9c0-1.21,1-2.18,2.84-2.91a21.64,21.64,0,0,1,7.59-1.09,19.18,19.18,0,0,1,7.22,1.06c1.66.7,2.5,1.72,2.5,3v6.8h-8.29v-6.8c0-.64-.61-1-1.82-1s-1.75.33-1.75,1v6.8Z" transform="translate(-150.56 -377)"/><path class="cls-1" d="M1280.87,5085.74v7.58h-8.29v-7.58h-6.35v-3.06h21v3.06Z" transform="translate(-150.56 -377)"/><path class="cls-1" d="M1305.13,5086.82v2.37h-5.41a7.07,7.07,0,0,0-1.57.12c-.3.09-.46.23-.46.42s.16.37.47.44a10.89,10.89,0,0,0,1.92.11h5.58v3h-6.52a22.58,22.58,0,0,1-7-.84c-1.62-.56-2.43-1.37-2.43-2.42v-4.17c0-1,.77-1.8,2.3-2.37a19.53,19.53,0,0,1,6.46-.84h7.21v3.06h-5.29c-1.43,0-2.14.17-2.14.53,0,.2.17.35.51.43a9.12,9.12,0,0,0,1.81.12Z" transform="translate(-150.56 -377)"/><path class="cls-1" d="M1318.7,5085.54v7.78h-8.29v-10.64h10.64a24.33,24.33,0,0,1,7.54.92c2,.69,3,1.56,3,2.61s-1.24,2-3.7,2.72l4.78,4.39H1324l-4-3.43v-2.74h.65c1.75,0,2.62-.28,2.62-.85s-1-.76-3-.76Z" transform="translate(-150.56 -377)"/><path class="cls-1" d="M1343.72,5082.68v10.64h-8.29v-10.64Z" transform="translate(-150.56 -377)"/><path class="cls-1" d="M1362.5,5082.42a28.25,28.25,0,0,1,10.16,1.64c2.82,1.1,4.24,2.41,4.24,3.94s-1.43,2.87-4.27,3.95a33.77,33.77,0,0,1-20.73,0c-2.85-1.1-4.28-2.41-4.28-3.95s1.44-2.88,4.31-4A30.28,30.28,0,0,1,1362.5,5082.42Zm-.24,3.13a11.65,11.65,0,0,0-4.35.72c-1.2.47-1.8,1-1.8,1.73s.6,1.25,1.81,1.73a13.68,13.68,0,0,0,8.7,0c1.19-.48,1.78-1,1.78-1.73s-.59-1.26-1.78-1.74A12,12,0,0,0,1362.26,5085.55Z" transform="translate(-150.56 -377)"/><path class="cls-1" d="M1389.08,5085.54v7.78h-8.29v-10.64h10.64a24.33,24.33,0,0,1,7.54.92c2,.69,3,1.56,3,2.61s-1.23,2-3.7,2.72l4.78,4.39h-8.7l-4-3.43v-2.74h.65c1.75,0,2.62-.28,2.62-.85s-1-.76-3-.76Z" transform="translate(-150.56 -377)"/><path class="cls-2" d="M1115.56,5053.66v17.78s32.88,10.67,32-24,0-73.78,0-73.78l-16,5.78v66.22S1131.56,5060.77,1115.56,5053.66Z" transform="translate(-150.56 -377)"/><path class="cls-2" d="M1158.89,4973.66l15.55,4c-.71,16-.58,29.65-.22,40.22.62,18.16,1.85,25.64,7.56,31.56,1.1,1.14,7,7.07,15.78,7.33,10.54.31,21-7.78,25.77-20.44V4979l15.11-5.33V5073l-14.66-5.11-.89-7.11s-8.22,11.11-26.89,11.11c-17.46,0-28-14.41-30.29-17.87l-.38-.57a34,34,0,0,1-5.33-15.33Z" transform="translate(-150.56 -377)"/><polygon class="cls-2" points="1105 4595.55 1105 4692.44 1119.22 4692.44 1119.22 4627.11 1177 4692.44 1188.11 4697.1 1188.11 4600.88 1173.44 4599.99 1174.78 4667.99 1116.11 4600.44 1105 4595.55"/><path class="cls-2" d="M1386.36,5057.49a31.79,31.79,0,0,1-12-3.11,15.38,15.38,0,0,1-5.33-4.23,15.92,15.92,0,0,1-3.33-10.44h44s-1.12-35.11-27.12-34.89-30.66,24.89-30.66,24.89a44.53,44.53,0,0,0-.45,11.11,32.92,32.92,0,0,0,3.11,12.67,29.49,29.49,0,0,0,11.34,11.77,33.9,33.9,0,0,0,20.89,5.12c7.33-1.12,21.77-9.78,21.77-9.78l-5.33-10.45S1392.81,5057.71,1386.36,5057.49Zm-5.86-39.56c11.7,0,13,9.33,13,9.33h-25.55S1368.81,5017.93,1380.5,5017.93Z" transform="translate(-150.56 -377)"/><rect class="cls-1" x="5.83" y="105.95" width="90.88" height="3.26"/><path class="cls-2" d="M150.56,447.09v15.36s32.88,9.22,32-20.74,0-63.75,0-63.75l-16,5v57.22S166.56,453.23,150.56,447.09Z" transform="translate(-150.56 -377)"/><path class="cls-2" d="M193.89,378l15.55,3.46c-.71,13.83-.58,25.61-.22,34.75.62,15.69,1.85,22.15,7.56,27.27a25.51,25.51,0,0,0,15.78,6.34c10.54.26,21-6.73,25.77-17.67V382.57L273.44,378v85.83l-14.66-4.41-.89-6.15s-8.22,9.6-26.89,9.6c-17.46,0-28-12.45-30.29-15.44l-.38-.5A26.77,26.77,0,0,1,195,433.65Z" transform="translate(-150.56 -377)"/><polygon class="cls-2" points="140 0 140 83.72 154.22 83.72 154.22 27.27 212 83.72 223.11 87.75 223.11 4.61 208.44 3.84 209.78 62.6 151.11 4.22 140 0"/><path class="cls-2" d="M421.36,450.39a35.39,35.39,0,0,1-12-2.69,15.12,15.12,0,0,1-5.33-3.64,12.48,12.48,0,0,1-3.33-9h44s-1.12-30.34-27.12-30.15-30.66,21.51-30.66,21.51a33.32,33.32,0,0,0-.45,9.6,25.35,25.35,0,0,0,3.11,10.95c3.4,5.82,8.81,8.81,11.34,10.17a38.27,38.27,0,0,0,20.89,4.42c7.33-1,21.77-8.45,21.77-8.45l-5.33-9S427.81,450.58,421.36,450.39Zm-5.86-34.18c11.7,0,13,8.07,13,8.07H402.92S403.81,416.21,415.5,416.21Z" transform="translate(-150.56 -377)"/><path class="cls-1" d="M270.86,478.57h4.59v14.61h-4.59Z" transform="translate(-150.56 -377)"/><path class="cls-1" d="M288,483.61v9.57h-4.41V478.57H288l8.4,9.65v-9.65h4.32v14.61h-4.32Z" transform="translate(-150.56 -377)"/><path class="cls-1" d="M313.55,481.26h-6.33v-2.69h17.13v2.69H318v11.92h-4.41Z" transform="translate(-150.56 -377)"/><path class="cls-1" d="M335.85,490.7h12.32v2.48h-17V478.57h17V481H335.85v3.6h12.32v2.44H335.85Z" transform="translate(-150.56 -377)"/><path class="cls-1" d="M360.83,487.27v5.91h-4.59V478.57h10.6a11.09,11.09,0,0,1,2.63.3,8,8,0,0,1,2.13.85A5,5,0,0,1,373,481a2.62,2.62,0,0,1,.52,1.54v.64a2.62,2.62,0,0,1-.52,1.54A4.78,4.78,0,0,1,371.6,486a7.35,7.35,0,0,1-2.13.85,10.59,10.59,0,0,1-2.63.31h-1.25l8.39,6.05h-5.25Zm0-6.15v3.46h5.28a4.37,4.37,0,0,0,2.28-.46,1.41,1.41,0,0,0,.72-1.26,1.48,1.48,0,0,0-.73-1.26,4.19,4.19,0,0,0-2.27-.48Z" transform="translate(-150.56 -377)"/><path class="cls-1" d="M381.19,478.57h4.59v14.61h-4.59Z" transform="translate(-150.56 -377)"/><path class="cls-1" d="M403.55,478.57a11.35,11.35,0,0,1,2.79.33,8.75,8.75,0,0,1,2.28.91,5,5,0,0,1,1.54,1.36,2.81,2.81,0,0,1,.56,1.65v6.12a2.75,2.75,0,0,1-.56,1.64,5,5,0,0,1-1.54,1.35,8.42,8.42,0,0,1-2.28.91,11.34,11.34,0,0,1-2.79.34h-2.82a11.4,11.4,0,0,1-2.79-.34,8.22,8.22,0,0,1-2.27-.91,4.87,4.87,0,0,1-1.54-1.35,2.7,2.7,0,0,1-.57-1.64v-6.12a2.75,2.75,0,0,1,.57-1.65,4.89,4.89,0,0,1,1.54-1.36,8.54,8.54,0,0,1,2.27-.91,11.41,11.41,0,0,1,2.79-.33Zm2.73,4.39a1.6,1.6,0,0,0-.74-1.31,3.36,3.36,0,0,0-2-.54h-2.76a3.38,3.38,0,0,0-2,.54A1.6,1.6,0,0,0,398,483v5.82a1.61,1.61,0,0,0,.74,1.32,3.38,3.38,0,0,0,2,.54h2.76a3.36,3.36,0,0,0,2-.54,1.61,1.61,0,0,0,.74-1.32Z" transform="translate(-150.56 -377)"/><path class="cls-1" d="M423.18,487.27v5.91h-4.59V478.57h10.6a11.09,11.09,0,0,1,2.63.3,8,8,0,0,1,2.14.85,4.9,4.9,0,0,1,1.42,1.27,2.55,2.55,0,0,1,.52,1.54v.64a2.55,2.55,0,0,1-.52,1.54A4.74,4.74,0,0,1,434,486a7.42,7.42,0,0,1-2.14.85,10.59,10.59,0,0,1-2.63.31h-1.25l8.4,6.05h-5.26Zm0-6.15v3.46h5.29a4.42,4.42,0,0,0,2.28-.46,1.42,1.42,0,0,0,.71-1.26,1.46,1.46,0,0,0-.73-1.26,4.17,4.17,0,0,0-2.26-.48Z" transform="translate(-150.56 -377)"/></svg>